#!OML:ASF X:\für Bonn\!DataBase\2005_08_10_Bjorn_Final\c3d\bjorn.ASF
:FULLY-SPECIFIED
:DEGREES
217
root 23.6701 16.4913 -0.585139 29.5984 -63.5363 -344.045
lowerback 63.0622 -2.50918 8.2949
upperback 17.2134 -0.207934 0.484485
thorax -1.7563 -0.231345 -2.86986
lowerneck -3.3552 -1.3291 6.18017
upperneck -11.4347 -2.31748 -3.64527
head -3.25314 -1.39363 -2.23975
rclavicle 6.67916e-014 3.26007e-014
rhumerus 77.5244 7.65385 -64.0616
rradius 18.789
rwrist 28.7111
rhand -46.0316 41.7088
rfingers 7.12502
rthumb -18.7761 12.595
lclavicle 6.67916e-014 3.26007e-014
lhumerus 63.5811 -6.73964 98.8156
lradius 12.8963
lwrist -52.7172
lhand -47.5054 8.06313
lfingers 7.12502
lthumb -20.1931 37.0336
rfemur -92.9793 -19.8335 19.6593
rtibia 74.0125
rfoot -20.5563 6.88542
rtoes -10.4463
lfemur -92.0958 4.30818 -31.851
ltibia 70.7315
lfoot -13.4138 -10.349
ltoes -1.21752
218
root 23.6616 16.4939 -0.583219 29.4659 -63.4807 -343.907
lowerback 63.1412 -2.52353 8.31121
upperback 17.2087 -0.207005 0.455647
thorax -1.75971 -0.224364 -2.90697
lowerneck -3.40151 -1.34253 6.23923
upperneck -11.4142 -2.33587 -3.61438
head -3.23926 -1.40659 -2.23963
rclavicle -1.27222e-014 -1.98785e-014
rhumerus 77.579 7.77431 -63.6363
rradius 18.7423
rwrist 29.1149
rhand -45.8782 42.1834
rfingers 7.12502
rthumb -18.6285 13.0553
lclavicle -1.27222e-014 -1.98785e-014
lhumerus 63.5248 -7.02921 98.3969
lradius 12.8952
lwrist -52.4809
lhand -46.6116 8.19522
lfingers 7.12502
lthumb -19.3338 37.2541
rfemur -92.9026 -19.8854 19.5748
rtibia 74.002
rfoot -20.6097 6.84104
rtoes -10.492
lfemur -92.0169 4.2457 -31.8813
ltibia 70.6961
lfoot -13.4073 -10.3755
ltoes -1.07656
219
root 23.6524 16.4971 -0.58188 29.3482 -63.426 -343.779
lowerback 63.2277 -2.53566 8.3361
upperback 17.1992 -0.197168 0.434392
thorax -1.76732 -0.214077 -2.94249
lowerneck -3.45776 -1.36338 6.2319
upperneck -11.4239 -2.36197 -3.53986
head -3.23197 -1.42281 -2.21254
rclavicle 1.27222e-014 8.74653e-015
rhumerus 77.6639 7.87536 -63.4106
rradius 18.5932
rwrist 29.7469
rhand -45.5632 42.6921
rfingers 7.12502
rthumb -18.3255 13.5353
lclavicle 1.27222e-014 8.74653e-015
lhumerus 63.5003 -7.34012 97.9708
lradius 12.8563
lwrist -52.2035
lhand -45.6638 8.30684
lfingers 7.12502
lthumb -18.4223 37.4545
rfemur -92.8299 -19.9285 19.488
rtibia 73.9883
rfoot -20.6359 6.80534
rtoes -10.4752
lfemur -91.9417 4.19919 -31.936
ltibia 70.6566
lfoot -13.4281 -10.3963
ltoes -1.1015
220
root 23.6446 16.5013 -0.580232 29.2188 -63.3772 -343.651
lowerback 63.2976 -2.5451 8.35734
upperback 17.1974 -0.189145 0.413968
thorax -1.76672 -0.204735 -2.97538
lowerneck -3.43614 -1.38485 6.21988
upperneck -11.4843 -2.38436 -3.46299
head -3.25628 -1.43692 -2.18402
rclavicle -2.22639e-014 -3.33958e-014
rhumerus 77.783 8.00106 -63.1001
rradius 18.3951
rwrist 30.3563
rhand -45.1661 43.1811
rfingers 7.12502
rthumb -17.9435 13.9889
lclavicle -2.22639e-014 -3.33958e-014
lhumerus 63.4166 -7.597 97.685
lradius 12.871
lwrist -52.0839
lhand -44.6504 8.39659
lfingers 7.12502
lthumb -17.4472 37.6336
rfemur -92.7414 -19.972 19.4005
rtibia 73.9747
rfoot -20.6877 6.78424
rtoes -10.5629
lfemur -91.8617 4.15176 -31.9772
ltibia 70.6194
lfoot -13.4141 -10.4104
ltoes -1.06298
221
root 23.6354 16.5045 -0.578937 29.0663 -63.3344 -343.495
lowerback 63.3814 -2.54751 8.36528
upperback 17.1947 -0.179534 0.395277
thorax -1.7676 -0.195398 -3.00112
lowerneck -3.50071 -1.41093 6.20621
upperneck -11.481 -2.4171 -3.37983
head -3.24293 -1.45636 -2.15269
rclavicle -1.90833e-014 3.26007e-014
rhumerus 77.9222 8.11607 -62.86
rradius 18.1337
rwrist 31.0891
rhand -44.7047 43.7446
rfingers 7.12502
rthumb -17.4995 14.5122
lclavicle -1.90833e-014 3.26007e-014
lhumerus 63.4045 -7.9011 97.2928
lradius 12.8318
lwrist -51.8818
lhand -43.5806 8.55439
lfingers 7.12502
lthumb -16.4174 37.8796
rfemur -92.66 -20.0127 19.293
rtibia 73.9653
rfoot -20.7378 6.74476
rtoes -10.6396
lfemur -91.7766 4.11278 -32.0404
ltibia 70.5791
lfoot -13.4138 -10.4558
ltoes -0.89956
222
root 23.6269 16.5081 -0.577975 28.9556 -63.2833 -343.367
lowerback 63.46 -2.56348 8.40534
upperback 17.1777 -0.165823 0.361272
thorax -1.78274 -0.181211 -3.05875
lowerneck -3.53477 -1.44141 6.22732
upperneck -11.498 -2.4527 -3.27931
head -3.24284 -1.47922 -2.12183
rclavicle 5.40694e-014 6.36111e-015
rhumerus 78.0836 8.23592 -62.4651
rradius 17.8588
rwrist 31.7984
rhand -44.2412 44.0243
rfingers 7.12502
rthumb -17.0534 14.7528
lclavicle 5.40694e-014 6.36111e-015
lhumerus 63.3406 -8.17686 97.0521
lradius 12.8041
lwrist -51.8021
lhand -42.5025 8.6369
lfingers 7.12502
lthumb -15.3792 38.0449
rfemur -92.6 -20.0488 19.2087
rtibia 73.9611
rfoot -20.7731 6.69461
rtoes -10.5942
lfemur -91.7098 4.06246 -32.0762
ltibia 70.5381
lfoot -13.4058 -10.5079
ltoes -0.740159
223
root 23.6174 16.5122 -0.576515 28.8124 -63.2274 -343.231
lowerback 63.5642 -2.58366 8.43997
upperback 17.1674 -0.158229 0.336196
thorax -1.79004 -0.170991 -3.10122
lowerneck -3.59539 -1.46986 6.27273
upperneck -11.5156 -2.49307 -3.23297
head -3.24015 -1.5044 -2.11385
rclavicle 2.54444e-014 1.19271e-014
rhumerus 78.3092 8.38968 -61.8219
rradius 17.5588
rwrist 32.3843
rhand -43.7127 44.1655
rfingers 7.12502
rthumb -16.5446 14.8508
lclavicle 2.54444e-014 1.19271e-014
lhumerus 63.3147 -8.46417 96.7539
lradius 12.7747
lwrist -51.6645
lhand -41.4067 8.73051
lfingers 7.12502
lthumb -14.3235 38.2164
rfemur -92.4935 -20.0941 19.0993
rtibia 73.9482
rfoot -20.805 6.68174
rtoes -10.4383
lfemur -91.6102 4.02079 -32.1252
ltibia 70.4962
lfoot -13.4075 -10.5559
ltoes -0.697512
224
root 23.6078 16.5151 -0.574971 28.6832 -63.1973 -343.093
lowerback 63.6213 -2.57761 8.47255
upperback 17.1916 -0.132976 0.323933
thorax -1.75794 -0.152749 -3.13716
lowerneck -3.66015 -1.51418 6.22845
upperneck -11.5647 -2.54818 -3.10289
head -3.24434 -1.53663 -2.06097
rclavicle -5.56597e-014 -2.8625e-014
rhumerus 78.6061 8.53363 -60.7419
rradius 17.303
rwrist 32.5848
rhand -43.1186 44.1954
rfingers 7.12502
rthumb -15.9726 14.8339
lclavicle -5.56597e-014 -2.8625e-014
lhumerus 63.3591 -8.80909 96.4195
lradius 12.7236
lwrist -51.5362
lhand -40.2988 8.84196
lfingers 7.12502
lthumb -13.2558 38.4004
rfemur -92.4144 -20.1174 18.9976
rtibia 73.9378
rfoot -20.8406 6.64085
rtoes -10.462
lfemur -91.5396 3.98796 -32.1857
ltibia 70.4635
lfoot -13.4388 -10.5595
ltoes -0.826559
225
root 23.5978 16.5193 -0.573828 28.5792 -63.1407 -343.004
lowerback 63.7347 -2.59154 8.52191
upperback 17.1801 -0.108545 0.320377
thorax -1.76408 -0.137301 -3.16813
lowerneck -3.7275 -1.55548 6.19143
upperneck -11.5768 -2.6024 -3.01648
head -3.23624 -1.56654 -2.02419
rclavicle -1.11319e-014 -6.04305e-014
rhumerus 78.9062 8.71465 -59.4983
rradius 17.092
rwrist 32.7244
rhand -42.4819 44.0119
rfingers 7.12502
rthumb -15.3593 14.6024
lclavicle -1.11319e-014 -6.04305e-014
lhumerus 63.3388 -9.07906 96.226
lradius 12.6876
lwrist -51.537
lhand -39.1929 8.88361
lfingers 7.12502
lthumb -12.1897 38.5084
rfemur -92.307 -20.1476 18.9182
rtibia 73.9191
rfoot -20.8931 6.61596
rtoes -10.4149
lfemur -91.4405 3.95992 -32.2133
ltibia 70.4227
lfoot -13.4399 -10.6097
ltoes -0.663647
226
root 23.588 16.5232 -0.572133 28.4553 -63.0923 -342.881
lowerback 63.8304 -2.59797 8.57174
upperback 17.1779 -0.0781779 0.318852
thorax -1.75935 -0.118517 -3.19991
lowerneck -3.82068 -1.60762 6.1821
upperneck -11.5861 -2.67472 -2.93873
head -3.22424 -1.60696 -1.99519
rclavicle 7.4743e-014 -1.90833e-014
rhumerus 79.1958 8.87469 -58.2608
rradius 16.9342
rwrist 32.8639
rhand -41.8339 43.6946
rfingers 7.12502
rthumb -14.7351 14.2384
lclavicle 7.4743e-014 -1.90833e-014
lhumerus 63.3696 -9.36861 96.0608
lradius 12.5972
lwrist -51.6912
lhand -38.1486 8.92297
lfingers 7.12502
lthumb -11.1826 38.605
rfemur -92.2108 -20.1857 18.8303
rtibia 73.902
rfoot -20.9283 6.58383
rtoes -10.4131
lfemur -91.3459 3.90912 -32.2373
ltibia 70.3786
lfoot -13.4285 -10.6317
ltoes -0.563662
227
root 23.5782 16.5281 -0.571169 28.3494 -63.0578 -342.774
lowerback 63.9146 -2.58874 8.60012
upperback 17.1942 -0.046939 0.326803
thorax -1.73514 -0.100998 -3.21312
lowerneck -3.95343 -1.65512 6.15359
upperneck -11.588 -2.74365 -2.86358
head -3.20174 -1.64518 -1.96391
rclavicle -1.00187e-013 3.49861e-014
rhumerus 79.52 9.03221 -57.0969
rradius 16.7897
rwrist 33.1614
rhand -41.2623 43.2405
rfingers 7.12502
rthumb -14.1844 13.7448
lclavicle -1.00187e-013 3.49861e-014
lhumerus 63.4126 -9.57757 96.0312
lradius 12.5128
lwrist -52.016
lhand -37.1453 8.8448
lfingers 7.12502
lthumb -10.2148 38.5768
rfemur -92.1167 -20.2098 18.7423
rtibia 73.8731
rfoot -20.9665 6.57525
rtoes -10.344
lfemur -91.2634 3.88259 -32.2707
ltibia 70.3307
lfoot -13.4287 -10.6604
ltoes -0.560702
228
root 23.5678 16.5339 -0.569654 28.2691 -62.9992 -342.675
lowerback 64.0178 -2.61234 8.66763
upperback 17.1666 -0.0200955 0.315975
thorax -1.75815 -0.0829562 -3.26063
lowerneck -4.077 -1.70715 6.13176
upperneck -11.5347 -2.81458 -2.76895
head -3.16157 -1.6836 -1.92715
rclavicle -9.38264e-014 -7.63333e-014
rhumerus 79.7866 9.19845 -55.9824
rradius 16.6927
rwrist 33.5136
rhand -40.7498 42.5891
rfingers 7.12502
rthumb -13.6905 13.0594
lclavicle -9.38264e-014 -7.63333e-014
lhumerus 63.4241 -9.78956 96.0501
lradius 12.3692
lwrist -52.4381
lhand -36.2636 8.62458
lfingers 7.12502
lthumb -9.36416 38.3966
rfemur -92.0356 -20.239 18.6677
rtibia 73.8476
rfoot -21.0033 6.52306
rtoes -10.3645
lfemur -91.1787 3.81751 -32.2679
ltibia 70.2714
lfoot -13.436 -10.6575
ltoes -0.493038
229
root 23.5566 16.5397 -0.567975 28.1777 -62.9502 -342.588
lowerback 64.1548 -2.60752 8.70321
upperback 17.137 0.0239382 0.337476
thorax -1.7833 -0.0635544 -3.26483
lowerneck -4.20117 -1.7541 6.15985
upperneck -11.4965 -2.88676 -2.74714
head -3.12969 -1.72315 -1.92417
rclavicle 5.24792e-014 -2.54444e-014
rhumerus 80.0803 9.36648 -54.9297
rradius 16.5745
rwrist 33.9876
rhand -40.2148 41.8493
rfingers 7.12502
rthumb -13.1748 12.2855
lclavicle 5.24792e-014 -2.54444e-014
lhumerus 63.4022 -9.93841 96.214
lradius 12.265
lwrist -53.0397
lhand -35.4086 8.31425
lfingers 7.12502
lthumb -8.53911 38.1216
rfemur -91.9309 -20.2718 18.6048
rtibia 73.8124
rfoot -21.055 6.48246
rtoes -10.4906
lfemur -91.0694 3.77149 -32.2732
ltibia 70.2141
lfoot -13.4458 -10.6517
ltoes -0.517071
